<svg width="745" height="757" viewBox="0 0 745 757" fill="none" xmlns="http://www.w3.org/2000/svg">
<path d="M419.419 0H745.428V533.036V757L571.44 681.62C555.38 674.662 537.776 672.041 520.387 674.018L432.546 684.007C423.82 685 415.013 685.045 406.277 684.144L356.692 679.026C309.178 674.122 268.709 642.358 252.657 597.37C245.226 576.546 228.917 560.106 208.152 552.511L170.708 538.814C117.619 519.394 79.957 471.778 73.286 415.644L55.7638 268.203C54.3538 256.338 51.5314 244.685 47.3565 233.49L15.9647 149.316C5.55759 121.41 3.69343 91.0375 10.6097 62.0684L25.4284 0H419.419Z" fill="#F2F2F2"/>
<g clip-path="url(#clip0)">
<path d="M476.19 183L430 262.992L383.81 183H230L430 529.414L630 183H476.19Z" fill="#42B883"/>
<path d="M476.19 183L430 262.992L383.81 183H309.992L430 390.844L550.008 183H476.19Z" fill="#35495E"/>
</g>
<defs>
<clipPath id="clip0">
<rect width="400" height="346.414" fill="white" transform="translate(230 183)"/>
</clipPath>
</defs>
</svg>
